<svg xmlns="http://www.w3.org/2000/svg" id="Layer_1" data-name="Layer 1" viewBox="0 0 715.42 715.48"><defs><style>
      .cls-1 {
        fill: #fff;
        stroke: #fff;
        stroke-miterlimit: 10;
      }
    </style></defs><title>The Steps White -nofill </title><path class="cls-1" d="M626.38,794.07H51.79V219.17h69.85V149.5h69.91V79.59H766.21V654.25H696.3v69.91H626.38ZM67.2,778.66H611V708.75h69.92V638.83H750.8V95H207v69.92H137.05v69.67H67.2Z" transform="translate(-51.29 -79.09)"></path><polygon class="cls-1" points="106.22 201.5 106.22 227.07 82.7 227.07 82.7 381.33 57.58 381.33 57.58 227.07 34.06 227.07 34.06 201.5 106.22 201.5"></polygon><polygon class="cls-1" points="122.4 201.5 147.52 201.5 147.52 278.58 169.44 278.58 169.44 201.5 194.56 201.5 194.56 381.33 169.44 381.33 169.44 304.25 147.52 304.25 147.52 381.33 122.4 381.33 122.4 201.5"></polygon><polygon class="cls-1" points="211.82 201.5 276.97 201.5 276.97 227.07 236.94 227.07 236.94 278.58 271.38 278.58 271.38 304.25 236.94 304.25 236.94 355.76 276.97 355.76 276.97 381.33 211.82 381.33 211.82 201.5"></polygon><path class="cls-1" d="M84.79,545.54q0-40.29,38.42-40.28t38.53,40.28v25.81H134.94V545.54q0-12.91-11.64-13h-.19q-11.55,0-11.55,13v17.4q0,12.8,25.08,31.38t25.08,44.3v24.25q0,40.37-38.43,40.38T84.79,662.87V637h26.78v25.82q0,13,11.74,13t11.64-13V641q0-13.89-25.07-32.46t-25.08-45Z" transform="translate(-51.29 -79.09)"></path><polygon class="cls-1" points="196.32 429.2 196.32 456.48 171.24 456.48 171.24 621.03 144.46 621.03 144.46 456.48 119.38 456.48 119.38 429.2 196.32 429.2"></polygon><polygon class="cls-1" points="207.15 429.2 276.62 429.2 276.62 456.48 233.93 456.48 233.93 511.43 270.66 511.43 270.66 538.8 233.93 538.8 233.93 593.75 276.62 593.75 276.62 621.03 207.15 621.03 207.15 429.2"></polygon><path class="cls-1" d="M341.58,508.29h39q35.67.1,35.68,40.38v28.84q0,29.73-25.65,38.33-6.15,2.06-17.89,2.05h-4.35v82.23H341.58Zm26.78,27.28v54.94h6.15q5.59,0,7.67-.79,7.29-3,7.29-12.22V548.67q0-13.1-11.64-13.1Z" transform="translate(-51.29 -79.09)"></path><path class="cls-1" d="M428,545.54q0-40.29,38.42-40.28T505,545.54v25.81H478.18V545.54q0-12.91-11.64-13h-.19q-11.55,0-11.55,13v17.4q0,12.8,25.08,31.38T505,638.62v24.25q0,40.37-38.43,40.38T428,662.87V637h26.78v25.82q0,13,11.74,13t11.64-13V641q0-13.89-25.07-32.46t-25.08-45Z" transform="translate(-51.29 -79.09)"></path></svg>